PathFileType	4	(X/Y/Z)	C:/Users/beibeiliu/ov580/test_trc/capture2\sequence.38_training_dense_left.trc
DataRate	CameraRate	NumFrames	NumMarkers	Units	OrigDataRate	OrigDataStartFrame	OrigNumFrames
120	120	16	19	mm	120	251	400
Frame#	Time	ThumbCMC			ThumbMCP			ThumbIP			ThumbTip			IndexMCP			IndexPIP			IndexTip			MiddleMCP			MiddlePIP			MiddleTip			RingMCP			RingPIP			RingTip			PinkyMCP			PinkyPIP			PinkyTip			BackHand1			BackHand2			BackHand3	
		X0	Y0	Z0	X1	Y1	Z1	X2	Y2	Z2	X3	Y3	Z3	X4	Y4	Z4	X5	Y5	Z5	X6	Y6	Z6	X7	Y7	Z7	X8	Y8	Z8	X9	Y9	Z9	X10	Y10	Z10	X11	Y11	Z11	X12	Y12	Z12	X13	Y13	Z13	X14	Y14	Z14	X15	Y15	Z15	X16	Y16	Z16	X17	Y17	Z17	X18	Y18	Z18	
250	2.08333	-111.024	-9.45698	40.1899	-101.111	-30.8244	16.0068	-92.8334	-35.6947	-9.94652	-91.346	-37.0791	-29.9775	-84.5795	25.5161	-15.8564	-79.5282	26.1487	-42.7897	-74.4718	15.1134	-73.5645	-107.304	37.8183	-31.5277	-98.6678	33.8301	-57.8189	-98.264	22.9855	-85.4793	-129.518	35.1723	-31.7637	-130.345	33.3198	-62.0083	-124.472	22.1693	-86.2148	-155.249	32.012	-27.3579	-159.388	31.9315	-51.4867	-161.857	36.8414	-73.7608	-142.053	37.3125	18.8178	-152.296	30.9128	46.1039	-121.129	25.6746	40.6785	
251	2.09167	-107.351	-7.11268	43.7223	-99.2813	-26.6652	19.5409	-90.1243	-32.1329	-7.44438	-88.7369	-31.3245	-32.0392	-87.9753	31.106	-19.8031	-79.0798	28.9863	-45.3025	-74.6111	20.3932	-69.6251	-108.003	38.5031	-31.3883	-103.299	36.0866	-58.821	-98.293	22.0368	-86.3957	-132.288	37.601	-36.364	-128.476	34.0047	-62.064	-125.718	22.1556	-88.9906	-156.891	29.6191	-27.9546	-160.413	30.8837	-52.218	-161.643	34.6385	-79.1796	-143.653	38.8722	15.3533	-155.163	33.6673	45.2332	-124.185	32.4168	37.8214	
252	2.1	-109.279	-0.688185	42.6319	-93.6572	-20.7191	16.1254	-85.8828	-28.1191	-5.51757	-84.2453	-31.068	-30.6298	-90.819	35.6756	-17.5733	-82.5151	33.6398	-48.7144	-76.565	24.9273	-73.7108	-113.029	41.9974	-34.7828	-104.518	37.6326	-59.9851	-97.6326	20.3257	-90.1524	-135.507	37.185	-36.5084	-132.235	33.6891	-61.1332	-129.51	22.6403	-88.0954	-163.295	28.9734	-32.746	-159.778	27.2808	-57.2923	-161.774	28.9772	-80.6542	-148.517	37.4952	15.5105	-157.881	34.4974	43.4443	-125.03	35.7314	37.4686	
253	2.10833	-105.492	2.81165	44.483	-95.2246	-15.1854	17.8488	-82.0174	-23.18	-6.168	-79.2314	-27.1692	-30.6082	-96.7108	42.6401	-23.2139	-84.0879	40.402	-45.1852	-76.1356	31.3706	-70.6991	-115.698	44.2077	-36.4021	-107.634	40.785	-60.3971	-101.159	22.219	-87.6311	-140.022	37.8937	-40.6969	-137.31	33.1235	-65.2134	-128.628	20.2429	-91.9469	-163.952	27.1558	-33.5574	-162.298	24.5009	-58.2248	-167.228	26.8206	-79.2452	-152.907	40.122	11.055	-162.148	35.3379	39.0937	-125.486	37.4144	35.3546	
254	2.11667	-106.952	10.8043	38.9536	-90.0282	-10.1853	17.7451	-80.5569	-16.9609	-4.26383	-78.5789	-20.1651	-32.1444	-97.8849	47.078	-20.4901	-86.0685	45.8269	-46.7291	-78.2615	33.878	-73.5614	-123.076	45.667	-33.6093	-112.032	41.4642	-62.3822	-100.452	19.8836	-89.8342	-143.418	38.1329	-37.9354	-135.687	33.1767	-67.3428	-128.926	19.1754	-91.4877	-166.617	23.5939	-33.3564	-162.424	22.2147	-55.649	-164.981	23.3629	-81.2506	-154.931	39.6616	11.4351	-163.417	32.2973	39.5577	-130.628	40.385	36.9996	
255	2.125	-108.894	15.9475	39.2301	-90.626	-2.2656	20.3302	-77.0779	-9.2279	-2.81495	-76.8185	-12.4372	-30.3325	-103.577	52.4392	-20.771	-92.0408	50.099	-50.1315	-84.4865	39.3609	-72.1311	-121.55	48.1219	-35.8891	-116.711	40.6615	-62.4039	-103.386	18.8939	-85.8866	-143.479	38.3325	-37.4112	-139.388	31.101	-68.1363	-125.381	19.3119	-91.0579	-165.173	22.99	-35.7522	-166.342	17.2535	-55.2896	-166.653	17.7954	-82.683	-158.197	37.6946	11.1296	-166.499	31.7134	39.7318	-138.126	42.9032	36.4566	
256	2.13333	-108.525	21.4312	43.8842	-87.8538	4.68872	21.4112	-78.8141	0.466738	-3.37733	-71.9987	-4.45577	-29.8588	-106.646	55.9035	-19.5786	-91.6073	54.797	-49.6344	-84.1837	40.8297	-72.6656	-130.068	46.6801	-36.2559	-117.415	40.551	-63.6982	-100.8	18.6071	-81.7055	-144.465	37.0992	-41.2008	-139.518	30.5499	-66.6879	-124.702	17.3254	-87.8158	-166.112	19.1199	-33.9557	-161.377	17.748	-55.8932	-162.86	14.8069	-79.9401	-162.088	35.4586	9.59717	-170.328	31.2856	39.3003	-143.389	44.8548	35.2939	
257	2.14167	-108.303	26.415	44.7801	-86.4135	12.3435	20.8069	-78.1867	7.11209	-0.79829	-73.6184	1.92691	-26.8719	-109.341	61.4894	-24.565	-99.3677	55.6955	-51.659	-89.0557	43.4132	-70.8875	-127.296	50.8539	-37.1402	-114.949	37.2351	-65.955	-94.8461	16.5994	-77.0504	-148.076	35.668	-37.3045	-139.864	29.3346	-65.5301	-120.939	18.5654	-84.6337	-164.95	16.3535	-33.8073	-160.68	13.4962	-58.3108	-162.509	10.473	-82.6245	-163.067	34.5713	8.32141	-173.282	29.5441	39.1967	-144.146	46.4628	29.8296	
258	2.15	-111.079	31.3559	42.3567	-90.3051	16.4763	24.0194	-71.7949	13.3816	-2.41602	-71.0602	9.21378	-25.7062	-115.556	62.2766	-25.0061	-104.616	60.092	-51.0211	-91.3907	47.405	-71.2035	-133.024	48.5849	-38.6698	-112.284	39.1979	-64.2236	-93.8869	11.8508	-73.2871	-147.125	34.9542	-41.3029	-135.252	29.7782	-67.0026	-117.086	13.7398	-87.1529	-163.084	16.735	-35.9198	-161.037	10.4278	-60.4752	-157.49	7.14633	-79.9463	-167.652	32.5456	10.0865	-171.658	29.8052	38.2585	-147.038	47.27	31.8436	
259	2.15833	-109.829	35.9237	39.8658	-87.1491	22.0634	20.7231	-74.0913	19.16	-5.65496	-68.94	12.55	-27.9138	-121.063	64.2359	-25.7708	-105.731	66.5604	-49.8388	-91.4984	52.0868	-71.127	-133.412	49.8436	-39.0802	-116.44	40.6758	-62.3946	-88.5989	14.2731	-68.1454	-149.449	32.7009	-42.5854	-137.62	27.2891	-65.0264	-112.152	14.6559	-82.7621	-162.111	14.6717	-31.1896	-159.744	7.08943	-57.5476	-152.411	6.95376	-82.5384	-170.882	31.0733	10.8153	-172.522	27.1611	38.8805	-147.32	52.7016	32.1549	
260	2.16667	-112.863	37.324	39.5637	-87.7106	25.9896	20.0071	-75.1109	22.4549	-4.03145	-72.9329	15.5759	-26.2743	-124.067	65.2064	-28.0797	-113.212	63.3004	-51.0045	-93.7225	52.585	-71.851	-134.519	49.7582	-37.7465	-116.209	40.5401	-61.4044	-87.8217	15.6275	-64.5075	-148.187	34.0427	-38.002	-135.759	28.2224	-63.895	-112.552	13.3619	-78.8837	-162.443	12.491	-36.9844	-158.268	8.305	-55.1412	-150.341	5.53042	-83.6559	-170.443	28.3532	10.618	-174.314	24.4166	38.7825	-152.18	47.619	31.7632	
261	2.175	-115.026	37.353	42.7098	-88.9447	26.7374	19.4424	-77.4419	24.0617	-8.07069	-75.7816	18.15	-30.6546	-124.023	67.9054	-26.4507	-110.904	65.6651	-53.5362	-97.1226	48.3208	-72.7213	-135.953	49.2271	-39.4062	-116.634	36.0956	-62.1608	-92.4329	15.107	-61.5517	-150.987	30.6522	-38.5673	-136.268	22.7769	-66.645	-110.453	13.3143	-77.4571	-162.075	11.2636	-32.3033	-156.642	5.20931	-55.2973	-147.36	2.52298	-81.3734	-168.44	28.6661	7.66931	-175.747	22.3867	36.1776	-150.923	51.4839	33.9209	
262	2.18333	-115.888	38.0281	41.5649	-93.6753	27.7265	16.3677	-79.3108	25.1849	-3.77006	-78.5917	18.3629	-35.2793	-129.584	63.9279	-29.1157	-112.814	64.4565	-54.9304	-97.0822	45.9741	-73.7429	-137.528	46.8795	-37.4107	-115.952	37.3412	-61.1608	-90.3049	12.2292	-57.6693	-151.182	29.1694	-41.0467	-134.311	21.5075	-66.6659	-109.648	13.2033	-75.884	-164.188	7.88013	-35.2868	-156.081	1.82159	-59.5148	-150.744	0.24203	-79.6209	-169.053	29.291	12.5604	-176.631	19.5849	41.0111	-154.346	45.9786	33.0008	
263	2.19167	-114.353	38.6657	42.8806	-90.4878	29.577	15.7206	-79.2725	26.4346	-8.81115	-82.6796	19.3643	-33.3975	-129.304	65.3465	-27.8646	-115.534	62.4471	-55.5362	-97.2623	48.8757	-70.5156	-138.495	45.9251	-37.7001	-115.511	34.1269	-61.2564	-87.1481	11.0682	-53.7065	-150.184	31.1141	-39.5093	-136.882	21.162	-64.1281	-108.175	12.9698	-74.0659	-161.94	7.61997	-32.8753	-154.481	3.48419	-58.8337	-148.378	-1.75831	-82.6172	-170.493	24.1187	9.74203	-175.47	16.8304	40.6482	-152.874	48.6493	30.7385	
264	2.2	-119.063	35.6434	41.5251	-94.3756	27.0957	19.9573	-80.6022	26.4441	-10.7329	-82.5078	19.5315	-32.3922	-133.462	61.7989	-28.4882	-118.563	64.1405	-51.6258	-99.3525	47.5696	-69.1339	-140.068	43.3354	-42.202	-115.809	35.4581	-59.4693	-88.6929	14.7331	-52.6298	-153.096	27.4603	-39.0475	-134.334	23.0056	-64.1881	-108.221	12.3339	-72.1581	-163.606	5.43382	-36.3671	-157.614	1.72855	-56.2529	-147.696	-1.37858	-78.2707	-169.197	25.1155	10.8683	-175.067	16.4995	37.9605	-157.212	45.685	33.6613	
265	2.20833	-117.801	37.898	37.4848	-97.0171	26.6552	17.8882	-81.5508	27.2945	-6.78854	-86.0217	19.6389	-32.6522	-135.695	59.6433	-25.539	-118.756	59.6878	-55.8786	-101.078	44.4216	-68.1704	-141.724	43.6055	-38.6257	-121.726	32.1067	-60.3518	-91.3481	12.2026	-52.6284	-152.317	27.9939	-41.8238	-136.572	17.5404	-65.5004	-110.338	9.2983	-71.9638	-164.596	4.074	-34.0122	-155.649	-0.391349	-60.0027	-146.091	-4.84903	-81.8914	-173.732	22.5124	11.5957	-177.864	16.2285	36.7335	-157.457	46.7419	32.6182	
